<svg aria-hidden="true" xmlns="http://www.w3.org/2000/svg" xmlns:xlink="http://www.w3.org/1999/xlink"><symbol viewBox="0 0 16.9043 13.0957" fill="none" id="address" xmlns="http://www.w3.org/2000/svg">
	<desc>
			Created with Pixso.
	</desc>
	<defs/>
	<path id="a&#xF015;" d="M14.32 4.39L16.75 6.41C16.84 6.47 16.9 6.59 16.9 6.67C16.9 6.76 16.87 6.85 16.81 6.91L16.05 7.82C15.99 7.91 15.9 7.93 15.79 7.93C15.7 7.93 15.61 7.91 15.55 7.85L8.67 2.19C8.61 2.13 8.52 2.1 8.46 2.1C8.37 2.1 8.29 2.13 8.23 2.19L1.34 7.85C1.28 7.91 1.2 7.93 1.11 7.93C0.99 7.93 0.9 7.91 0.84 7.82L0.08 6.91C0.05 6.85 0 6.76 0 6.67C0 6.59 0.05 6.47 0.14 6.41L7.55 0.29C7.79 0.11 8.11 0 8.46 0C8.78 0 9.11 0.11 9.34 0.29L11.98 2.46L11.98 0.35C11.98 0.14 12.12 0 12.33 0L13.97 0C14.15 0 14.32 0.14 14.32 0.35L14.32 4.39ZM2.84 7.85L8.23 3.39C8.29 3.33 8.37 3.31 8.46 3.31C8.52 3.31 8.61 3.33 8.67 3.39L14.09 7.82L14.09 12.62C14.09 12.89 13.85 13.09 13.62 13.09L10.31 13.09C10.07 13.09 9.84 12.89 9.84 12.62L9.84 9.81C9.84 9.58 9.63 9.34 9.37 9.34L7.5 9.34C7.26 9.34 7.03 9.58 7.03 9.81L7.03 12.62C7.03 12.89 6.82 13.09 6.59 13.09L3.31 13.09C3.04 13.09 2.84 12.89 2.84 12.62L2.84 7.85Z" fill="currentColor" fill-opacity="1.000000" fill-rule="evenodd"/>
</symbol><symbol viewBox="0 0 20 19" fill="none" id="arrow-calendar" xmlns="http://www.w3.org/2000/svg">
<path d="M8.51562 2.19375C8.10937 2.6 8.15 3.20938 8.51562 3.61563L13.4312 8.24688H1.77187C1.20312 8.24688 0.796875 8.69375 0.796875 9.22188V10.5219C0.796875 11.0906 1.20312 11.4969 1.77187 11.4969H13.4312L8.51562 16.1688C8.15 16.575 8.15 17.1844 8.51562 17.5906L9.40937 18.4844C9.81562 18.85 10.425 18.85 10.7906 18.4844L18.7125 10.5625C19.0781 10.1969 19.0781 9.5875 18.7125 9.18125L10.7906 1.3C10.425 0.934376 9.81562 0.934376 9.40937 1.3L8.51562 2.19375Z" fill="currentColor"/>
</symbol><symbol viewBox="0 0 14 10.6467" fill="none" id="check" xmlns="http://www.w3.org/2000/svg">
	<desc>
			Created with Pixso.
	</desc>
	<defs/>
	<path id="cpath7" d="M13.84 0.17C13.62 -0.06 13.27 -0.06 13.05 0.15C13.04 0.16 13.04 0.16 13.03 0.17L3.91 9.29L0.94 6.33C0.72 6.11 0.37 6.12 0.15 6.34C-0.06 6.56 -0.06 6.9 0.15 7.12L3.51 10.48C3.73 10.7 4.09 10.7 4.3 10.48L13.82 0.96C14.05 0.74 14.05 0.39 13.84 0.17Z" fill="currentColor" fill-opacity="1.000000" fill-rule="nonzero"/>
</symbol><symbol viewBox="0 0 14.5312 14.5312" fill="none" id="copyright" xmlns="http://www.w3.org/2000/svg">
	<desc>
			Created with Pixso.
	</desc>
	<defs/>
	<path id="d&#xF1F9;" d="M0 7.26C0 3.28 3.25 0 7.26 0C11.25 0 14.53 3.28 14.53 7.26C14.53 11.27 11.25 14.53 7.26 14.53C3.25 14.53 0 11.27 0 7.26ZM1.4 7.26C1.4 10.51 4.01 13.12 7.26 13.12C10.48 13.12 13.12 10.51 13.12 7.26C13.12 4.04 10.48 1.4 7.26 1.4C4.01 1.4 1.4 4.04 1.4 7.26ZM10.48 9.93C10.48 10.01 10.45 10.1 10.4 10.16C10.1 10.45 9.05 11.39 7.35 11.39C4.92 11.39 3.22 9.58 3.22 7.23C3.22 4.92 5 3.16 7.32 3.16C8.96 3.16 9.93 3.92 10.19 4.18C10.25 4.24 10.31 4.33 10.31 4.42C10.31 4.51 10.28 4.57 10.25 4.62L9.69 5.44C9.6 5.62 9.34 5.65 9.19 5.53C8.93 5.33 8.26 4.86 7.38 4.86C5.97 4.86 5.09 5.91 5.09 7.23C5.09 8.43 5.88 9.66 7.41 9.66C8.34 9.66 9.05 9.11 9.31 8.87C9.49 8.73 9.72 8.75 9.84 8.93L10.42 9.72C10.45 9.78 10.48 9.84 10.48 9.93Z" fill="currentColor" fill-opacity="1.000000" fill-rule="evenodd"/>
</symbol><symbol viewBox="0 0 15 11.25" fill="none" id="email" xmlns="http://www.w3.org/2000/svg">
	<desc>
			Created with Pixso.
	</desc>
	<defs/>
	<path id="e&#xF0E0;" d="M9.29 6.55C8.77 6.95 8.04 7.52 7.5 7.5C6.93 7.52 6.18 6.95 5.66 6.54C5.53 6.45 5.42 6.36 5.33 6.29C1.43 3.48 1.14 3.22 0.26 2.51C0.08 2.4 0 2.19 0 1.96L0 1.4C0 0.64 0.61 0 1.4 0L13.59 0C14.35 0 15 0.64 15 1.4L15 1.96C15 2.19 14.88 2.4 14.7 2.51C13.82 3.22 13.53 3.48 9.63 6.29C9.54 6.36 9.42 6.45 9.29 6.55ZM10.19 7.06C13.18 4.89 14.03 4.24 14.7 3.72C14.82 3.63 15 3.72 15 3.86L15 9.84C15 10.63 14.35 11.25 13.59 11.25L1.4 11.25C0.61 11.25 0 10.63 0 9.84L0 3.86C0 3.72 0.14 3.63 0.26 3.72C0.93 4.24 1.78 4.89 4.77 7.06C5.39 7.5 6.44 8.46 7.5 8.46C8.52 8.46 9.6 7.5 10.19 7.06Z" fill="currentColor" fill-opacity="1.000000" fill-rule="evenodd"/>
</symbol><symbol viewBox="0 0 16.875 15" fill="none" id="envato" xmlns="http://www.w3.org/2000/svg">
	<desc>
			Created with Pixso.
	</desc>
	<defs/>
	<path id="f&#xF091;" d="M13.12 1.87L16.17 1.87C16.55 1.87 16.87 2.19 16.87 2.57L16.87 4.21C16.87 5.27 16.2 6.35 15.05 7.17C14.12 7.85 13 8.26 11.83 8.4C10.89 9.93 9.84 10.54 9.84 10.54L9.84 12.65L11.25 12.65C12.27 12.65 13.12 13.27 13.12 14.29L13.12 14.64C13.12 14.85 12.94 15 12.77 15L4.1 15C3.89 15 3.75 14.85 3.75 14.64L3.75 14.29C3.75 13.27 4.57 12.65 5.62 12.65L7.03 12.65L7.03 10.54C7.03 10.54 5.94 9.93 5 8.4C3.83 8.26 2.72 7.85 1.78 7.17C0.64 6.35 0 5.27 0 4.21L0 2.57C0 2.19 0.29 1.87 0.7 1.87L3.75 1.87L3.75 0.7C3.75 0.32 4.04 0 4.45 0L12.42 0C12.8 0 13.12 0.32 13.12 0.7L13.12 1.87ZM1.87 4.21C1.87 4.57 2.16 5.15 2.9 5.65C3.25 5.91 3.66 6.12 4.13 6.29C3.92 5.56 3.77 4.71 3.75 3.75L1.87 3.75L1.87 4.21ZM13.94 5.65C14.47 5.3 15 4.71 15 4.21L15 3.75L13.09 3.75C13.06 4.71 12.91 5.56 12.71 6.29C13.18 6.12 13.59 5.91 13.94 5.65Z" fill="currentColor" fill-opacity="1.000000" fill-rule="evenodd"/>
</symbol><symbol viewBox="0 0 19.375 19.2578" fill="none" id="facebook" xmlns="http://www.w3.org/2000/svg">
	<desc>
			Created with Pixso.
	</desc>
	<defs/>
	<path id="g&#xF09A;" d="M9.68 0C15.03 0 19.37 4.33 19.37 9.68C19.37 14.53 15.82 18.55 11.17 19.25L11.17 12.5L13.43 12.5L13.86 9.68L11.17 9.68L11.17 7.89C11.17 7.1 11.56 6.36 12.77 6.36L13.98 6.36L13.98 3.98C13.98 3.98 12.89 3.78 11.79 3.78C9.6 3.78 8.16 5.15 8.16 7.57L8.16 9.68L5.7 9.68L5.7 12.5L8.16 12.5L8.16 19.25C3.51 18.55 2.47e-5 14.53 2.47e-5 9.68C2.47e-5 4.33 4.33 0 9.68 0Z" fill="currentColor" fill-opacity="1.000000" fill-rule="evenodd"/>
</symbol><symbol viewBox="0 0 8.4375 15.0078" fill="none" id="location" xmlns="http://www.w3.org/2000/svg">
	<desc>
			Created with Pixso.
	</desc>
	<defs/>
	<path id="h&#xF276;" d="M0 4.21C0 1.9 1.87 0 4.21 0C6.53 0 8.43 1.9 8.43 4.21C8.43 6.56 6.53 8.43 4.21 8.43C1.87 8.43 0 6.56 0 4.21ZM2.22 4.21C2.22 3.13 3.1 2.22 4.21 2.22C4.39 2.22 4.57 2.08 4.57 1.87C4.57 1.69 4.39 1.52 4.21 1.52C2.72 1.52 1.52 2.75 1.52 4.21C1.52 4.42 1.66 4.57 1.87 4.57C2.05 4.57 2.22 4.42 2.22 4.21ZM3.28 13.88L3.28 9.28C3.57 9.34 3.89 9.37 4.21 9.37C4.51 9.37 4.83 9.34 5.15 9.28L5.15 13.88L4.48 14.85C4.36 15.05 4.04 15.05 3.92 14.85L3.28 13.88Z" fill="currentColor" fill-opacity="1.000000" fill-rule="evenodd"/>
</symbol><symbol viewBox="0 0 33.75 26.25" fill="none" id="master-card" xmlns="http://www.w3.org/2000/svg">
	<desc>
			Created with Pixso.
	</desc>
	<defs/>
	<path id="i&#xF1F1;" d="M30.93 0C32.46 0 33.75 1.28 33.75 2.81L33.75 23.43C33.75 25.01 32.46 26.25 30.93 26.25L2.81 26.25C1.23 26.25 0 25.01 0 23.43L0 2.81C0 1.28 1.23 0 2.81 0L30.93 0ZM11.83 2.92C7.38 2.92 3.75 6.56 3.75 11.01C3.75 15.52 7.38 19.16 11.83 19.16C13.41 19.16 15 18.63 16.34 17.75C12.07 14.29 12.07 7.73 16.34 4.27C15 3.39 13.41 2.92 11.83 2.92ZM21.85 19.1C26.3 19.16 30 15.52 30 11.01C30 6.56 26.3 2.92 21.85 2.92C20.27 2.92 18.69 3.39 17.4 4.27C21.62 7.73 21.67 14.29 17.4 17.75C18.69 18.63 20.27 19.1 21.85 19.1ZM16.87 4.62C12.71 7.91 12.71 14.17 16.87 17.4C20.97 14.17 20.97 7.91 16.87 4.62ZM29.17 15.76L29.12 15.76L29.12 16.05L29.17 16.05L29.17 15.76ZM29.7 16.05L29.7 15.76L29.64 15.76L29.53 15.93L29.47 15.76L29.35 15.76L29.35 16.05L29.41 16.05L29.41 15.82L29.53 15.99L29.58 15.99L29.64 15.82L29.64 16.05L29.7 16.05ZM28.71 23.2L28.71 20.21L28.24 20.21L28.24 21.32C27.77 20.68 26.48 21.03 26.48 22.14C26.48 23.26 27.77 23.55 28.24 22.96L28.24 23.2L28.71 23.2ZM14.23 22.44C14.23 23.49 15.29 23.32 15.58 23.08L15.46 22.73C15.23 22.85 14.76 22.96 14.76 22.44L14.76 21.5L15.52 21.5L15.52 21.03L14.76 21.03L14.76 20.39L14.23 20.39L14.23 21.03L13.82 21.03L13.82 21.5L14.23 21.5L14.23 22.44ZM8.49 23.2L8.49 21.85C8.49 21.32 8.2 21.03 7.67 20.97C7.38 20.97 7.08 21.09 6.91 21.38C6.73 21.15 6.5 20.97 6.21 20.97C5.97 20.97 5.74 21.09 5.56 21.32L5.56 21.03L5.09 21.03L5.09 23.2L5.56 23.2C5.56 23 5.56 22.81 5.55 22.64C5.53 21.87 5.51 21.44 6.09 21.44C6.58 21.44 6.58 21.86 6.56 22.7C6.56 22.85 6.56 23.02 6.56 23.2L7.03 23.2C7.03 23.05 7.02 22.91 7.02 22.77C7.01 21.96 7 21.44 7.55 21.44C8.05 21.44 8.04 21.86 8.03 22.7C8.03 22.85 8.02 23.02 8.02 23.2L8.49 23.2ZM11.13 23.2L11.13 21.03L10.66 21.03L10.66 21.32C10.54 21.15 10.31 20.97 10.01 20.97C9.37 20.97 8.9 21.5 8.9 22.14C8.9 22.79 9.37 23.26 10.01 23.26C10.31 23.26 10.54 23.14 10.66 22.96L10.66 23.2L11.13 23.2ZM17.63 22.61C17.16 22.96 16.52 22.96 16.34 22.32L17.98 22.32C17.98 21.38 17.51 20.97 16.93 20.97C16.34 20.97 15.87 21.44 15.87 22.14C15.87 23.32 17.22 23.55 17.87 22.96L17.63 22.61ZM19.68 21.5L19.8 21.03C19.57 20.91 19.16 20.97 18.92 21.32L18.92 21.03L18.45 21.03L18.45 23.2L18.92 23.2L18.92 21.97C18.92 21.32 19.51 21.38 19.68 21.5ZM11.6 23.02C12.24 23.43 13.53 23.37 13.53 22.55C13.53 21.67 12.18 22.08 12.18 21.67C12.18 21.32 12.89 21.38 13.24 21.62L13.47 21.21C12.89 20.85 11.66 20.85 11.66 21.67C11.66 22.55 13 22.2 13 22.55C13 22.96 12.24 22.91 11.83 22.61L11.6 23.02ZM26.19 21.5L26.3 21.03C26.19 20.97 25.66 20.91 25.42 21.32L25.42 21.03L24.96 21.03L24.96 23.2L25.42 23.2L25.42 21.97C25.42 21.32 25.95 21.38 26.19 21.5ZM24.37 23.2L24.37 21.03L23.9 21.03L23.9 21.32C23.37 20.68 22.14 21.03 22.14 22.14C22.14 23.26 23.43 23.55 23.9 22.96L23.9 23.2L24.37 23.2ZM21.67 22.61C21.15 23.02 20.44 22.79 20.44 22.14C20.44 21.44 21.15 21.26 21.67 21.62L21.91 21.26C21.21 20.74 19.98 21.03 19.98 22.14C19.98 23.32 21.26 23.55 21.91 23.02L21.67 22.61ZM9.37 22.14C9.37 21.73 9.66 21.44 10.07 21.44C10.42 21.44 10.66 21.73 10.72 22.14C10.72 22.55 10.42 22.79 10.07 22.79C9.66 22.79 9.37 22.5 9.37 22.14ZM16.4 21.91C16.4 21.62 16.64 21.44 16.93 21.44C17.22 21.44 17.46 21.62 17.51 21.91L16.4 21.91ZM22.61 22.14C22.61 21.73 22.85 21.44 23.26 21.44C23.67 21.44 23.9 21.73 23.9 22.14C23.9 22.55 23.67 22.79 23.26 22.79C22.85 22.79 22.61 22.5 22.61 22.14ZM27.59 21.44C28 21.44 28.24 21.73 28.24 22.14C28.24 22.55 28 22.79 27.59 22.79C27.18 22.79 26.95 22.5 26.95 22.14C26.95 21.73 27.18 21.44 27.59 21.44ZM29.47 23.2C29.47 23.14 29.47 23.14 29.53 23.14L29.53 22.96L29.47 22.91C29.47 22.85 29.41 22.85 29.41 22.85C29.35 22.85 29.35 22.79 29.29 22.79L29.23 22.85C29.17 22.85 29.17 22.85 29.17 22.91C29.12 22.91 29.12 22.91 29.12 22.96L29.12 23.14L29.23 23.26L29.41 23.26C29.41 23.2 29.47 23.2 29.47 23.2ZM29.41 23.14C29.47 23.14 29.47 23.14 29.47 23.08L29.47 22.96C29.47 22.96 29.47 22.91 29.41 22.91L29.35 22.91C29.35 22.85 29.35 22.85 29.29 22.85L29.23 22.91L29.17 22.91L29.17 22.96C29.12 22.96 29.12 23.02 29.12 23.02C29.12 23.08 29.12 23.08 29.17 23.08L29.17 23.14C29.23 23.14 29.23 23.2 29.23 23.2L29.35 23.2C29.41 23.2 29.41 23.14 29.41 23.14ZM29.41 23.14L29.35 23.14L29.29 23.02L29.29 23.14L29.23 23.14L29.23 22.91L29.29 22.91C29.35 22.91 29.35 22.96 29.35 22.96L29.41 22.96C29.41 23.02 29.41 23.02 29.35 23.02L29.35 23.08L29.41 23.14Z" fill="currentColor" fill-opacity="1.000000" fill-rule="evenodd"/>
</symbol><symbol viewBox="0 0 33.75 26.25" fill="none" id="pay-pal" xmlns="http://www.w3.org/2000/svg">
	<desc>
			Created with Pixso.
	</desc>
	<defs/>
	<path id="j&#xF1F4;" d="M30.93 0C32.46 0 33.75 1.28 33.75 2.81L33.75 23.43C33.75 25.01 32.46 26.25 30.93 26.25L2.81 26.25C1.23 26.25 0 25.01 0 23.43L0 2.81C0 1.28 1.23 0 2.81 0L30.93 0ZM4.8 13.47C6.44 13.47 7.5 12.48 7.5 10.78C7.5 9.55 6.56 9.14 5.44 9.14L3.1 9.14C2.98 9.14 2.81 9.25 2.81 9.43L1.87 15.41C1.81 15.52 1.93 15.64 2.05 15.64L3.16 15.64C3.28 15.64 3.45 15.46 3.45 15.29L3.75 13.71C3.79 13.38 4.24 13.42 4.58 13.46C4.66 13.46 4.74 13.47 4.8 13.47ZM21.44 13.47C23.08 13.47 24.14 12.48 24.14 10.78C24.14 9.55 23.2 9.14 22.08 9.14L19.74 9.14C19.62 9.14 19.45 9.25 19.45 9.43L18.51 15.41C18.51 15.52 18.57 15.64 18.69 15.64L19.86 15.64C19.98 15.64 20.09 15.52 20.09 15.41L20.39 13.71C20.43 13.38 20.88 13.42 21.22 13.46C21.3 13.46 21.38 13.47 21.44 13.47ZM31.87 9.37L31.87 9.31C31.87 9.19 31.75 9.14 31.64 9.14L30.58 9.14Q30.49 9.14 30.45 9.18Q30.41 9.22 30.41 9.31L29.41 15.41C29.41 15.52 29.53 15.64 29.64 15.64L30.58 15.64C30.76 15.64 30.87 15.46 30.87 15.29L31.87 9.37ZM4.39 10.42L4.68 10.42C5.33 10.42 5.85 10.54 5.74 11.3C5.62 12.07 5.09 12.12 4.45 12.12L3.98 12.18L4.21 10.6C4.21 10.48 4.33 10.42 4.39 10.42ZM21.09 10.42L21.32 10.42C21.85 10.42 22.38 10.48 22.38 11.07C22.38 11.95 21.85 12.12 21.09 12.12L20.62 12.18L20.85 10.6C20.91 10.48 20.97 10.42 21.09 10.42ZM12.59 11.54C12.65 11.42 12.53 11.3 12.42 11.3L11.3 11.3C11.07 11.3 11.07 11.6 11.07 11.77C10.72 11.25 10.25 11.19 9.66 11.19C8.26 11.19 7.14 12.42 7.14 13.82C7.14 15 7.85 15.7 9.02 15.7C9.55 15.7 10.19 15.41 10.54 15C10.54 15.11 10.48 15.29 10.48 15.41C10.48 15.52 10.54 15.64 10.66 15.64L11.71 15.64C11.83 15.64 12.01 15.46 12.01 15.29L12.59 11.54ZM29.23 11.54C29.29 11.42 29.17 11.3 29.06 11.3L27.94 11.3C27.71 11.3 27.71 11.6 27.71 11.77C27.36 11.25 26.89 11.19 26.3 11.19C24.9 11.19 23.78 12.42 23.78 13.82C23.78 15 24.49 15.7 25.66 15.7C26.19 15.7 26.83 15.41 27.18 15C27.18 15.11 27.12 15.29 27.12 15.41C27.12 15.52 27.18 15.64 27.3 15.64L28.35 15.64C28.47 15.64 28.65 15.46 28.65 15.29L29.23 11.54ZM14.53 17.16C14.64 17.16 14.76 17.1 14.82 17.05L18.51 11.6C18.57 11.54 18.57 11.54 18.57 11.48C18.57 11.42 18.45 11.3 18.39 11.3L17.22 11.3C17.16 11.3 17.05 11.36 16.99 11.42L15.41 13.71L14.76 11.54C14.76 11.42 14.58 11.3 14.47 11.3L13.35 11.3C13.24 11.3 13.18 11.42 13.18 11.48C13.18 11.54 14.29 14.82 14.41 15.11C14.23 15.35 13.24 16.81 13.24 16.99Q13.24 17.08 13.28 17.12Q13.33 17.16 13.41 17.16L14.53 17.16ZM9.96 12.36C10.48 12.36 10.89 12.71 10.89 13.3C10.89 14 10.31 14.53 9.6 14.53C9.08 14.53 8.67 14.23 8.67 13.65C8.67 12.94 9.19 12.36 9.96 12.36ZM25.31 13.65C25.31 12.94 25.83 12.36 26.6 12.36C27.12 12.36 27.53 12.71 27.53 13.3C27.53 14 26.95 14.53 26.25 14.53C25.72 14.53 25.31 14.23 25.31 13.65Z" fill="currentColor" fill-opacity="1.000000" fill-rule="evenodd"/>
</symbol><symbol viewBox="0 0 14 14" fill="none" id="phone" xmlns="http://www.w3.org/2000/svg">
<path d="M13.5898 9.64844L10.5273 8.33594C10.4453 8.30859 10.3633 8.28125 10.2539 8.28125C10.0625 8.28125 9.87109 8.39062 9.76172 8.52734L8.39453 10.1953C6.26172 9.18359 4.56641 7.48828 3.55469 5.35547L5.22266 3.98828C5.35938 3.87891 5.46875 3.6875 5.46875 3.46875C5.46875 3.38672 5.44141 3.30469 5.41406 3.22266L4.10156 0.160156C3.99219 -0.0859375 3.74609 -0.25 3.47266 -0.25C3.44531 -0.25 3.39062 -0.222656 3.33594 -0.222656L0.492188 0.433594C0.191406 0.515625 0 0.761719 0 1.0625C0 8.08984 5.66016 13.75 12.6875 13.75C12.9883 13.75 13.2344 13.5586 13.3164 13.2578L13.9727 10.4141C13.9727 10.3594 13.9727 10.3047 13.9727 10.2773C13.9727 10.0039 13.8086 9.75781 13.5898 9.64844Z" fill="currentColor"/>
</symbol><symbol viewBox="0 0 13 11" fill="none" id="send-massage" xmlns="http://www.w3.org/2000/svg">
<path d="M12.3047 1.45703C12.4688 0.691405 12.0313 0.390624 11.5391 0.58203L0.656264 4.76562C-0.0820175 5.06641 -0.0546737 5.47656 0.546889 5.66797L3.30861 6.51562L9.76173 2.46875C10.0625 2.25 10.3633 2.38672 10.1172 2.57812L4.89455 7.28125L4.70314 10.1523C5.00392 10.1523 5.1133 10.043 5.27736 9.87891L6.6172 8.56641L9.43361 10.6445C9.95314 10.9453 10.336 10.7812 10.4727 10.1797L12.3047 1.45703Z" fill="currentColor"/>
</symbol><symbol viewBox="0 0 33.75 26.25" fill="none" id="stripe" xmlns="http://www.w3.org/2000/svg">
	<desc>
			Created with Pixso.
	</desc>
	<defs/>
	<path id="m&#xF1F5;" d="M2.81 0L30.93 0C32.46 0 33.75 1.28 33.75 2.81L33.75 23.43C33.75 25.01 32.46 26.25 30.93 26.25L2.81 26.25C1.23 26.25 0 25.01 0 23.43L0 2.81C0 1.28 1.23 0 2.81 0ZM15.99 8.9L18.1 8.43L18.1 6.73L15.99 7.2L15.99 8.9ZM9.6 11.3L11.19 11.3L11.19 9.55L9.6 9.55L9.6 7.73L7.55 8.14L7.55 14.82C7.55 16.05 8.49 16.99 9.72 16.99C10.37 16.99 10.89 16.87 11.19 16.69L11.19 15C10.89 15.11 9.6 15.46 9.6 14.23L9.6 11.3ZM4.21 16.99C5.91 16.99 7.14 16.11 7.14 14.64C7.14 12.12 3.92 12.59 3.92 11.66C3.92 11.3 4.21 11.19 4.68 11.19C5.27 11.19 6.09 11.36 6.73 11.71L6.73 9.78C6.03 9.49 5.33 9.37 4.68 9.37C2.98 9.37 1.87 10.25 1.87 11.77C1.87 14.06 5.03 13.65 5.03 14.64C5.03 15.05 4.68 15.17 4.21 15.17C3.51 15.17 2.63 14.88 1.93 14.53L1.93 16.52C2.69 16.81 3.51 16.99 4.21 16.99ZM20.97 16.46C21.26 16.64 21.67 16.99 22.44 16.99C23.9 16.99 25.25 15.76 25.25 13.12C25.25 10.72 23.9 9.37 22.44 9.37C21.62 9.37 21.09 9.78 20.8 10.01L20.68 9.55L18.86 9.55L18.86 19.21L20.97 18.8L20.97 16.46ZM27.77 13.94L31.81 13.94C31.81 13.82 31.87 13.41 31.87 13.18C31.87 11.07 30.82 9.37 28.82 9.37C26.83 9.37 25.66 11.07 25.66 13.18C25.66 15.7 27.07 16.99 29.12 16.99C30.11 16.99 30.82 16.75 31.4 16.4L31.4 14.76C30.82 15.05 30.17 15.23 29.35 15.23C28.53 15.23 27.83 14.94 27.77 13.94ZM13.88 11.89C14.41 11.25 15.23 11.36 15.52 11.42L15.52 9.55L15.46 9.55C15.23 9.43 14.23 9.25 13.76 10.13L13.65 9.55L11.83 9.55L11.83 16.81L13.88 16.81L13.88 11.89ZM15.99 16.81L18.1 16.81L18.1 9.55L15.99 9.55L15.99 16.81ZM27.71 12.42C27.71 11.48 28.3 11.07 28.82 11.07C29.35 11.07 29.88 11.48 29.88 12.42L27.71 12.42ZM20.97 11.66C21.15 11.42 21.44 11.25 21.97 11.25C22.67 11.25 23.2 12.07 23.2 13.18C23.2 14.29 22.73 15.11 21.97 15.11C21.44 15.11 21.15 14.94 20.97 14.76L20.97 11.66Z" fill="currentColor" fill-opacity="1.000000" fill-rule="evenodd"/>
</symbol><symbol viewBox="0 0 19.9609 16.2109" fill="none" id="twitter" xmlns="http://www.w3.org/2000/svg">
	<desc>
			Created with Pixso.
	</desc>
	<defs/>
	<path id="n&#xF099;" d="M19.96 1.91C19.41 2.73 18.71 3.43 17.92 4.02L17.92 4.57C17.92 10 13.82 16.21 6.28 16.21C3.94 16.21 1.79 15.54 2.47e-5 14.37C0.31 14.41 0.62 14.45 0.97 14.45C2.89 14.45 4.64 13.78 6.05 12.69C4.25 12.65 2.73 11.48 2.22 9.84C2.5 9.88 2.73 9.92 3 9.92C3.35 9.92 3.75 9.84 4.06 9.76C2.18 9.37 0.78 7.73 0.78 5.74L0.78 5.7C1.32 6.01 1.99 6.17 2.65 6.21C1.52 5.46 0.82 4.21 0.82 2.81C0.82 2.03 1.01 1.32 1.36 0.74C3.39 3.2 6.44 4.84 9.84 5.03Q9.72 4.57 9.72 4.1C9.72 1.83 11.56 0 13.82 0C15 0 16.05 0.46 16.83 1.28C17.73 1.09 18.63 0.74 19.41 0.27C19.1 1.25 18.47 2.03 17.61 2.53C18.43 2.46 19.25 2.22 19.96 1.91Z" fill="currentColor" fill-opacity="1.000000" fill-rule="evenodd"/>
</symbol><symbol viewBox="0 0 17.4715 15.1201" fill="none" id="vimeo" xmlns="http://www.w3.org/2000/svg">
	<desc>
			Created with Pixso.
	</desc>
	<defs/>
	<path id="o&#xF27D;" d="M14.92 0C16.71 0.04 17.57 1.21 17.46 3.47C17.38 5.19 16.21 7.5 13.9 10.47C11.52 13.55 9.53 15.12 7.85 15.12Q7.71 15.12 7.58 15.09Q6.23 14.87 5.27 12.3C3.9 7.22 3.32 4.29 2.18 4.29C2.03 4.29 1.6 4.57 0.82 5.12L-5.73e-6 4.06C1.99 2.26 3.9 0.31 5.11 0.19C6.48 0.08 7.34 1.01 7.65 3.01C8.74 10.08 9.25 11.17 11.28 7.93C12.03 6.79 12.42 5.9 12.5 5.31C12.65 3.51 11.09 3.63 9.99 4.1Q10.81 1.45 12.54 0.51Q13.57 -0.05 14.92 0Z" fill="currentColor" fill-opacity="1.000000" fill-rule="evenodd"/>
</symbol><symbol viewBox="0 0 33.75 26.25" fill="none" id="visa" xmlns="http://www.w3.org/2000/svg">
	<desc>
			Created with Pixso.
	</desc>
	<defs/>
	<path id="p&#xF1F0;" d="M30.93 0C32.46 0 33.75 1.28 33.75 2.81L33.75 23.43C33.75 25.01 32.46 26.25 30.93 26.25L2.81 26.25C1.23 26.25 0 25.01 0 23.43L0 2.81C0 1.28 1.23 0 2.81 0L30.93 0ZM18.51 17.69C21.03 17.69 22.61 16.46 22.61 14.58C22.67 13.53 22.03 12.77 20.68 12.12C19.86 11.71 19.33 11.42 19.33 11.01C19.33 10.6 19.74 10.19 20.68 10.19C21.44 10.19 22.03 10.37 22.44 10.54L22.67 10.66L22.96 8.67C22.5 8.49 21.79 8.32 20.85 8.32C18.51 8.32 16.87 9.55 16.87 11.3C16.87 12.59 18.04 13.35 18.92 13.76C19.86 14.23 20.15 14.53 20.15 14.88C20.15 15.52 19.45 15.82 18.75 15.82C17.81 15.82 17.34 15.64 16.52 15.29L16.23 15.17L15.93 17.22C16.46 17.46 17.46 17.69 18.51 17.69ZM6.44 17.57L8.9 17.57L12.59 8.43L10.13 8.43L7.79 14.64L7.55 13.41L6.73 9.25C6.62 8.67 6.21 8.49 5.68 8.43L1.87 8.43L1.87 8.67C2.75 8.9 3.57 9.19 4.33 9.66L6.44 17.57ZM12.07 17.57L14.41 17.57L15.93 8.43L13.53 8.43L12.07 17.57ZM28.71 17.57L30.93 17.57L29 8.43L27.18 8.43C26.6 8.43 26.19 8.61 25.95 9.19L22.44 17.57L24.96 17.57C24.96 17.57 25.31 16.46 25.42 16.23L28.47 16.23C28.53 16.52 28.71 17.57 28.71 17.57ZM27.21 11.32C27.26 11.17 27.32 11.02 27.36 10.89L27.53 11.71C27.53 11.71 27.94 13.88 28.06 14.35L26.13 14.35C26.3 13.82 27.07 11.77 27.07 11.77C27.03 11.81 27.11 11.58 27.21 11.32Z" fill="currentColor" fill-opacity="1.000000" fill-rule="evenodd"/>
</symbol><symbol viewBox="0 0 21.3672 15" fill="none" id="youtube" xmlns="http://www.w3.org/2000/svg">
	<desc>
			Created with Pixso.
	</desc>
	<defs/>
	<path id="q&#xF167;" d="M19.02 0.46C19.92 0.7 20.66 1.44 20.89 2.38C21.36 4.02 21.36 7.53 21.36 7.53C21.36 7.53 21.36 11.01 20.89 12.69C20.66 13.63 19.92 14.33 19.02 14.57C17.34 15 10.7 15 10.7 15C10.7 15 4.02 15 2.34 14.57C1.44 14.33 0.7 13.63 0.46 12.69C-5.73e-6 11.01 -5.73e-6 7.53 -5.73e-6 7.53C-5.73e-6 7.53 -5.73e-6 4.02 0.46 2.38C0.7 1.44 1.44 0.7 2.34 0.46C4.02 0 10.7 0 10.7 0C10.7 0 17.34 0 19.02 0.46ZM14.06 7.53L8.51 4.37L8.51 10.7L14.06 7.53Z" fill="currentColor" fill-opacity="1.000000" fill-rule="evenodd"/>
</symbol></svg>