<svg id="svg" version="1.1" xmlns="http://www.w3.org/2000/svg" xmlns:xlink="http://www.w3.org/1999/xlink" width="400" height="102.5" viewBox="0, 0, 400,102.5"><g id="svgg"><path id="path0" d="M106.333 8.150 L 106.333 16.300 107.542 16.417 C 108.326 16.493,108.867 16.638,109.083 16.830 C 109.267 16.992,109.776 17.322,110.214 17.562 L 111.012 18.000 186.251 18.000 L 261.490 18.000 262.120 17.650 C 262.466 17.457,262.995 17.116,263.293 16.890 C 263.703 16.581,264.124 16.456,265.002 16.383 L 266.167 16.285 266.167 8.142 L 266.167 0.000 186.250 0.000 L 106.333 0.000 106.333 8.150 M221.115 44.667 C 221.051 45.171,220.953 45.751,220.897 45.956 C 220.826 46.217,220.880 46.362,221.076 46.437 C 221.554 46.620,221.634 46.295,221.429 45.000 L 221.231 43.750 221.115 44.667 M161.244 53.667 C 161.244 57.929,161.265 59.673,161.292 57.542 C 161.318 55.410,161.318 51.923,161.292 49.792 C 161.265 47.660,161.244 49.404,161.244 53.667 M181.116 50.417 C 180.971 51.278,180.967 55.791,181.111 56.513 C 181.335 57.633,181.477 56.451,181.472 53.500 C 181.466 50.401,181.326 49.180,181.116 50.417 M38.728 53.417 C 38.728 54.333,38.756 54.687,38.790 54.203 C 38.824 53.718,38.823 52.968,38.789 52.536 C 38.755 52.104,38.727 52.500,38.728 53.417 M216.111 55.611 C 215.999 56.305,216.168 56.613,216.542 56.392 C 216.749 56.270,216.742 56.162,216.498 55.615 L 216.214 54.980 216.111 55.611 M225.966 55.794 C 225.703 56.241,225.704 56.277,225.996 56.459 C 226.380 56.699,226.535 56.404,226.362 55.758 L 226.245 55.322 225.966 55.794 M138.347 60.604 C 137.912 61.157,137.914 61.215,138.386 61.764 L 138.773 62.213 139.132 61.756 C 139.463 61.336,139.472 61.262,139.247 60.827 C 138.895 60.147,138.737 60.108,138.347 60.604 M109.750 88.247 C 108.977 88.516,108.203 88.655,107.458 88.660 L 106.333 88.667 106.333 95.583 L 106.333 102.500 186.250 102.500 L 266.167 102.500 266.167 95.583 L 266.167 88.667 265.087 88.667 C 264.377 88.667,263.582 88.524,262.766 88.250 L 261.525 87.833 186.221 87.838 L 110.917 87.842 109.750 88.247 " stroke="none" fill="#f4f8f9" fill-rule="evenodd"></path><path id="path1" d="M0.000 52.500 L 0.000 88.667 53.127 88.667 C 105.840 88.667,106.262 88.664,107.167 88.333 C 107.668 88.150,108.182 88.000,108.309 88.000 C 108.436 88.000,108.788 87.781,109.093 87.514 C 110.111 86.620,106.293 86.660,186.750 86.706 C 269.530 86.754,262.425 86.667,263.667 87.656 C 263.896 87.839,264.273 88.020,264.504 88.060 C 264.736 88.099,265.214 88.252,265.566 88.399 C 266.330 88.718,267.313 88.750,267.422 88.458 C 267.589 88.016,267.584 16.667,267.417 16.664 C 267.325 16.663,267.362 16.589,267.500 16.500 C 267.679 16.384,267.508 16.338,266.893 16.336 C 266.306 16.334,266.007 16.408,265.945 16.569 C 265.895 16.699,265.362 17.080,264.761 17.417 C 264.159 17.753,263.667 18.099,263.667 18.184 C 263.667 18.642,262.749 19.721,262.115 20.009 C 261.018 20.507,111.482 20.507,110.385 20.009 C 109.751 19.721,109.088 18.949,108.799 18.163 C 108.748 18.024,108.275 17.686,107.748 17.413 C 107.221 17.140,106.707 16.785,106.605 16.625 C 106.429 16.348,103.704 16.333,53.210 16.333 L 0.000 16.333 0.000 52.500 M54.499 42.416 C 55.615 42.993,55.874 43.728,55.232 44.491 C 54.494 45.368,54.366 45.391,50.556 45.350 C 44.848 45.288,44.297 45.481,43.063 47.977 C 42.492 49.131,41.981 49.913,41.521 50.333 L 40.833 50.961 40.843 52.772 C 40.858 55.473,40.988 56.032,41.776 56.797 C 42.213 57.221,42.516 57.711,42.661 58.229 C 42.945 59.245,43.384 59.790,44.171 60.105 C 44.520 60.244,45.097 60.680,45.455 61.073 C 46.208 61.900,46.261 61.910,50.963 62.100 C 53.913 62.219,54.118 62.285,54.702 63.289 C 55.437 64.554,53.161 65.334,48.750 65.331 C 45.658 65.329,44.553 65.036,43.320 63.891 C 43.083 63.671,42.295 63.249,41.570 62.953 L 40.250 62.415 39.667 61.213 C 39.346 60.551,38.806 59.726,38.467 59.380 C 37.281 58.169,37.091 57.475,37.028 54.106 C 36.946 49.735,37.242 48.436,38.509 47.597 C 38.964 47.296,39.199 46.957,39.474 46.202 C 39.882 45.082,40.062 44.886,40.957 44.584 C 41.380 44.441,41.800 44.092,42.252 43.506 C 42.620 43.030,43.070 42.553,43.252 42.445 C 44.025 41.989,53.626 41.965,54.499 42.416 M195.750 42.263 C 197.628 42.571,198.109 43.973,196.685 44.987 C 196.228 45.312,195.977 45.333,192.590 45.333 C 187.001 45.333,186.344 45.484,185.579 46.945 C 185.179 47.709,184.904 48.005,184.297 48.329 C 183.312 48.853,183.169 49.502,183.119 53.667 C 183.073 57.445,183.135 57.615,185.187 59.333 C 186.007 60.021,186.963 60.824,187.310 61.117 C 188.123 61.806,188.898 61.976,191.750 62.091 C 194.676 62.210,195.355 62.375,196.014 63.124 L 196.523 63.704 196.151 64.100 C 194.547 65.807,187.159 65.807,185.334 64.100 C 184.864 63.661,184.262 63.282,183.861 63.174 C 182.967 62.933,182.266 62.323,181.936 61.500 C 181.772 61.091,181.414 60.654,181.014 60.374 C 179.857 59.566,179.692 59.077,179.473 55.811 C 179.111 50.423,179.535 47.750,180.869 47.000 C 181.317 46.748,181.623 46.409,181.827 45.940 C 182.183 45.120,182.702 44.608,183.524 44.264 C 183.875 44.118,184.269 43.771,184.467 43.435 C 184.952 42.614,185.580 42.263,186.742 42.166 C 188.096 42.052,194.913 42.126,195.750 42.263 M222.105 42.319 C 222.497 42.559,222.738 42.931,223.080 43.825 C 223.347 44.524,223.837 45.368,224.272 45.877 C 224.922 46.639,225.500 47.922,225.500 48.605 C 225.500 49.572,225.927 50.599,226.668 51.418 C 227.494 52.330,227.697 52.825,228.251 55.280 C 228.481 56.296,228.608 56.543,229.096 56.915 C 230.981 58.353,231.234 62.949,229.478 63.845 L 228.831 64.175 228.315 63.796 C 227.699 63.343,227.325 62.650,226.851 61.083 C 226.082 58.547,224.653 57.668,221.320 57.684 C 217.091 57.704,215.978 58.347,215.576 61.000 C 215.413 62.080,215.111 62.720,214.415 63.459 L 213.802 64.110 212.943 63.888 C 212.009 63.647,211.678 63.338,211.645 62.676 C 211.634 62.442,211.601 62.063,211.574 61.833 C 211.430 60.648,212.676 57.253,213.459 56.696 C 213.858 56.412,213.983 56.112,214.315 54.640 C 214.756 52.680,215.151 51.794,215.761 51.394 C 216.373 50.993,216.647 50.354,217.000 48.500 C 217.357 46.627,217.607 46.053,218.335 45.441 C 218.617 45.204,219.000 44.651,219.185 44.213 C 219.771 42.827,219.905 42.619,220.417 42.307 C 221.052 41.918,221.452 41.921,222.105 42.319 M75.077 43.339 C 75.403 43.893,75.420 44.259,75.510 52.250 C 75.632 63.148,75.109 62.000,79.953 62.000 C 84.121 62.000,84.348 62.049,85.068 63.108 C 85.453 63.675,85.462 63.736,85.214 64.116 C 84.567 65.102,84.161 65.167,78.570 65.167 L 73.461 65.167 72.830 64.536 C 71.942 63.648,71.917 63.328,71.917 52.917 C 71.917 44.169,71.926 43.900,72.256 43.333 C 73.032 41.997,74.291 42.000,75.077 43.339 M104.494 42.496 C 105.418 43.154,105.417 43.135,105.417 53.000 C 105.417 62.611,105.398 62.866,104.625 64.001 C 103.827 65.174,103.242 64.977,102.472 63.275 L 102.083 62.417 102.036 53.455 C 101.985 43.738,102.008 43.438,102.865 42.637 C 103.459 42.082,103.864 42.047,104.494 42.496 M162.186 42.635 C 162.947 43.315,162.979 43.730,162.990 53.117 C 163.002 62.869,162.880 63.885,161.599 64.725 C 161.080 65.065,160.244 64.361,159.836 63.241 C 159.580 62.535,159.361 45.568,159.589 44.010 C 159.816 42.454,161.176 41.733,162.186 42.635 M125.425 42.604 C 126.859 42.964,127.662 43.896,128.393 46.048 C 128.449 46.212,128.735 46.474,129.030 46.631 C 129.808 47.046,130.203 47.529,130.507 48.437 C 130.712 49.049,130.950 49.362,131.513 49.757 C 132.004 50.102,132.446 50.632,132.839 51.347 C 133.163 51.937,133.764 52.757,134.174 53.168 C 134.584 53.580,135.204 54.460,135.552 55.125 C 136.279 56.513,136.375 56.562,136.706 55.708 C 137.246 54.313,137.326 53.481,137.371 48.750 C 137.430 42.560,137.643 42.073,139.931 42.904 C 141.841 43.597,141.830 43.537,141.832 53.943 L 141.833 61.303 141.389 62.193 C 139.806 65.368,138.741 65.687,137.225 63.437 C 136.784 62.784,136.040 61.836,135.571 61.331 C 134.932 60.643,134.660 60.188,134.490 59.523 C 134.261 58.631,134.024 58.353,133.018 57.801 C 132.686 57.618,132.352 57.197,132.074 56.610 C 131.747 55.919,131.454 55.585,130.844 55.205 C 130.230 54.823,129.980 54.537,129.775 53.979 C 129.627 53.578,129.353 52.828,129.166 52.313 C 128.857 51.463,128.756 51.349,128.081 51.091 C 127.221 50.763,126.740 50.223,126.494 49.312 C 125.980 47.400,125.664 50.065,125.666 56.314 C 125.667 62.093,125.620 62.386,124.532 63.475 L 123.808 64.201 123.388 63.809 C 122.237 62.735,122.256 62.880,122.197 54.500 C 122.108 41.941,122.151 41.782,125.425 42.604 M220.837 48.496 C 220.646 48.687,220.500 49.054,220.500 49.342 C 220.500 50.338,219.971 52.219,219.605 52.523 C 219.410 52.685,219.034 52.995,218.769 53.211 C 217.550 54.209,220.166 54.932,222.217 54.165 C 223.146 53.817,223.156 53.806,222.906 53.423 C 222.722 53.143,221.833 49.115,221.833 48.563 C 221.833 48.252,221.129 48.204,220.837 48.496 " stroke="none" fill="#64bcc4" fill-rule="evenodd"></path><path id="path2" d="M270.236 16.461 C 270.054 16.584,269.842 86.811,270.019 88.250 C 270.030 88.342,270.031 88.473,270.020 88.542 C 270.009 88.610,299.250 88.667,335.000 88.667 L 400.000 88.667 400.000 52.500 L 400.000 16.333 335.208 16.336 C 299.573 16.337,270.335 16.394,270.236 16.461 M319.710 42.654 C 320.125 43.018,320.362 43.458,320.651 44.400 C 320.872 45.122,321.276 45.966,321.597 46.378 C 322.421 47.436,322.667 48.298,322.667 50.132 C 322.667 51.007,322.749 52.196,322.850 52.775 L 323.033 53.828 324.622 54.581 C 326.844 55.633,327.165 55.417,327.166 52.868 C 327.167 50.219,327.645 48.617,328.743 47.582 C 329.424 46.940,329.463 46.849,329.754 45.192 C 330.204 42.629,330.946 41.958,332.078 43.089 C 333.171 44.182,332.888 47.140,331.566 48.424 C 330.566 49.397,330.394 49.890,330.179 52.417 C 329.958 55.004,329.681 56.139,329.052 57.040 C 328.794 57.409,328.465 57.887,328.321 58.102 C 328.177 58.317,327.963 59.224,327.846 60.117 C 327.496 62.795,326.818 63.865,325.685 63.525 C 323.111 62.754,322.560 61.907,322.249 58.250 C 322.054 55.946,322.018 55.841,321.167 55.016 C 320.209 54.087,320.060 53.629,319.810 50.833 C 319.592 48.394,319.231 47.732,318.413 48.267 C 317.986 48.548,317.958 48.649,317.664 51.058 C 317.447 52.826,316.976 54.165,316.349 54.792 C 315.589 55.552,315.480 55.923,315.237 58.585 C 314.914 62.121,314.776 62.365,312.466 63.507 L 311.182 64.141 310.600 63.497 C 309.870 62.689,309.500 61.470,309.500 59.875 C 309.500 58.509,309.398 58.240,308.482 57.194 C 307.782 56.394,307.507 55.422,307.155 52.500 C 306.942 50.727,306.757 50.232,305.924 49.204 C 304.963 48.019,304.310 44.319,304.902 43.415 C 306.015 41.717,307.436 42.373,307.845 44.774 C 308.091 46.217,308.390 46.949,308.894 47.345 C 309.722 47.997,310.312 50.180,310.331 52.667 C 310.343 54.118,310.518 54.999,310.917 55.608 L 311.202 56.042 312.684 54.566 C 314.382 52.876,314.404 52.825,314.739 49.909 C 315.001 47.627,315.254 46.786,315.961 45.850 C 316.196 45.538,316.585 44.752,316.824 44.103 C 317.509 42.247,318.614 41.692,319.710 42.654 M357.950 42.395 C 360.478 42.490,362.344 43.755,363.156 45.926 C 363.343 46.427,363.760 47.219,364.082 47.687 C 364.822 48.763,364.822 48.768,363.878 50.483 C 362.957 52.158,362.596 52.922,362.451 53.505 C 362.393 53.736,362.113 54.149,361.829 54.421 L 361.312 54.917 357.488 54.967 L 353.665 55.017 353.356 55.634 C 352.748 56.850,352.296 58.962,352.418 60.015 C 352.574 61.358,351.805 63.500,351.167 63.500 C 350.864 63.500,349.968 62.592,349.625 61.937 C 349.270 61.260,349.265 61.126,349.246 52.436 L 349.226 43.622 349.635 43.136 C 350.435 42.185,350.998 42.135,357.950 42.395 M353.040 45.629 L 352.497 46.083 352.503 48.750 L 352.508 51.417 353.106 52.232 L 353.704 53.046 355.089 52.940 C 355.851 52.881,356.874 52.751,357.362 52.651 C 357.851 52.551,358.425 52.436,358.639 52.395 C 359.238 52.280,359.783 51.572,360.008 50.616 C 360.120 50.140,360.318 49.540,360.448 49.283 C 360.660 48.864,360.650 48.763,360.356 48.283 C 360.176 47.990,359.912 47.300,359.770 46.750 C 359.372 45.210,359.272 45.166,356.190 45.171 C 353.600 45.176,353.580 45.178,353.040 45.629 " stroke="none" fill="#0c3454" fill-rule="evenodd"></path><path id="path3" d="M267.500 16.500 C 267.362 16.589,267.325 16.663,267.417 16.664 C 267.569 16.666,267.608 86.661,267.456 88.125 L 267.400 88.667 268.690 88.667 C 269.839 88.667,270.318 88.540,270.077 88.299 C 269.858 88.080,270.015 16.610,270.236 16.461 C 270.510 16.275,267.787 16.314,267.500 16.500 M317.821 42.545 C 317.393 42.834,317.156 43.203,316.824 44.103 C 316.585 44.752,316.196 45.538,315.961 45.850 C 315.254 46.786,315.001 47.627,314.739 49.909 C 314.404 52.825,314.382 52.876,312.684 54.566 L 311.202 56.042 310.917 55.608 C 310.518 54.999,310.343 54.118,310.331 52.667 C 310.312 50.180,309.722 47.997,308.894 47.345 C 308.390 46.949,308.091 46.217,307.845 44.774 C 307.436 42.373,306.015 41.717,304.902 43.415 C 304.310 44.319,304.963 48.019,305.924 49.204 C 306.757 50.232,306.942 50.727,307.155 52.500 C 307.507 55.422,307.782 56.394,308.482 57.194 C 309.398 58.240,309.500 58.509,309.500 59.875 C 309.500 61.470,309.870 62.689,310.600 63.497 L 311.182 64.141 312.466 63.507 C 314.776 62.365,314.914 62.121,315.237 58.585 C 315.480 55.923,315.589 55.552,316.349 54.792 C 316.976 54.165,317.447 52.826,317.664 51.058 C 317.958 48.649,317.986 48.548,318.413 48.267 C 319.231 47.732,319.592 48.394,319.810 50.833 C 320.060 53.629,320.209 54.087,321.167 55.016 C 322.018 55.841,322.054 55.946,322.249 58.250 C 322.560 61.907,323.111 62.754,325.685 63.525 C 326.818 63.865,327.496 62.795,327.846 60.117 C 327.963 59.224,328.177 58.317,328.321 58.102 C 328.465 57.887,328.794 57.409,329.052 57.040 C 329.681 56.139,329.958 55.004,330.179 52.417 C 330.394 49.890,330.566 49.397,331.566 48.424 C 332.888 47.140,333.171 44.182,332.078 43.089 C 330.946 41.958,330.204 42.629,329.754 45.192 C 329.463 46.849,329.424 46.940,328.743 47.582 C 327.645 48.617,327.167 50.219,327.166 52.868 C 327.165 55.417,326.844 55.633,324.622 54.581 L 323.033 53.828 322.850 52.775 C 322.749 52.196,322.667 51.007,322.667 50.132 C 322.667 48.298,322.421 47.436,321.597 46.378 C 321.276 45.966,320.872 45.122,320.651 44.400 C 320.033 42.388,319.030 41.730,317.821 42.545 M350.564 42.434 C 350.278 42.553,349.860 42.868,349.635 43.136 L 349.226 43.622 349.246 52.436 C 349.265 61.126,349.270 61.260,349.625 61.937 C 349.968 62.592,350.864 63.500,351.167 63.500 C 351.805 63.500,352.574 61.358,352.418 60.015 C 352.296 58.962,352.748 56.850,353.356 55.634 L 353.665 55.017 357.488 54.967 L 361.312 54.917 361.829 54.421 C 362.113 54.149,362.393 53.736,362.451 53.505 C 362.596 52.922,362.957 52.158,363.878 50.483 C 364.822 48.768,364.822 48.763,364.082 47.687 C 363.760 47.219,363.343 46.427,363.156 45.926 C 362.344 43.755,360.478 42.490,357.950 42.395 C 353.152 42.216,351.065 42.227,350.564 42.434 M359.154 45.458 C 359.363 45.628,359.620 46.167,359.770 46.750 C 359.912 47.300,360.176 47.990,360.356 48.283 C 360.650 48.763,360.660 48.864,360.448 49.283 C 360.318 49.540,360.120 50.140,360.008 50.616 C 359.783 51.572,359.238 52.280,358.639 52.395 C 358.425 52.436,357.851 52.551,357.362 52.651 C 356.874 52.751,355.851 52.881,355.089 52.940 L 353.704 53.046 353.106 52.232 L 352.508 51.417 352.503 48.750 L 352.497 46.083 353.040 45.629 C 353.745 45.041,358.480 44.908,359.154 45.458 " stroke="none" fill="#34748c" fill-rule="evenodd"></path><path id="path4" d="M106.500 16.485 C 106.500 16.657,107.247 17.168,108.229 17.668 C 108.492 17.802,108.749 18.025,108.800 18.164 C 109.088 18.949,109.751 19.721,110.385 20.009 C 111.482 20.507,261.018 20.507,262.115 20.009 C 262.738 19.726,263.456 18.901,263.682 18.209 C 263.719 18.094,264.232 17.719,264.821 17.375 C 266.322 16.499,266.351 16.252,264.936 16.384 C 264.131 16.460,263.679 16.599,263.288 16.894 C 262.992 17.117,262.466 17.457,262.120 17.650 L 261.490 18.000 186.251 18.000 L 111.012 18.000 110.214 17.562 C 109.776 17.322,109.267 16.993,109.083 16.831 C 108.693 16.488,106.500 16.193,106.500 16.485 M46.500 42.147 C 43.233 42.262,43.207 42.271,42.252 43.506 C 41.800 44.092,41.380 44.441,40.957 44.584 C 40.062 44.886,39.882 45.082,39.474 46.202 C 39.199 46.957,38.964 47.296,38.509 47.597 C 36.348 49.027,36.319 57.186,38.467 59.380 C 38.806 59.726,39.346 60.551,39.667 61.213 L 40.250 62.415 41.570 62.953 C 42.295 63.249,43.083 63.671,43.320 63.891 C 44.553 65.036,45.658 65.329,48.750 65.331 C 53.161 65.334,55.437 64.554,54.702 63.289 C 54.118 62.285,53.913 62.219,50.963 62.100 C 46.261 61.910,46.208 61.900,45.455 61.073 C 45.097 60.680,44.520 60.244,44.171 60.105 C 43.384 59.790,42.945 59.245,42.661 58.229 C 42.516 57.711,42.213 57.221,41.776 56.797 C 40.988 56.032,40.858 55.473,40.843 52.772 L 40.833 50.961 41.521 50.333 C 41.981 49.913,42.492 49.131,43.063 47.977 C 44.297 45.481,44.848 45.288,50.556 45.350 C 54.366 45.391,54.494 45.368,55.232 44.491 C 55.757 43.866,55.769 43.676,55.319 43.102 C 54.540 42.113,52.810 41.925,46.500 42.147 M186.742 42.166 C 185.580 42.263,184.952 42.614,184.467 43.435 C 184.269 43.771,183.875 44.118,183.524 44.264 C 182.702 44.608,182.183 45.120,181.827 45.940 C 181.623 46.409,181.317 46.748,180.869 47.000 C 179.535 47.750,179.111 50.423,179.473 55.811 C 179.692 59.077,179.857 59.566,181.014 60.374 C 181.414 60.654,181.772 61.091,181.936 61.500 C 182.266 62.323,182.967 62.933,183.861 63.174 C 184.262 63.282,184.864 63.661,185.334 64.100 C 187.159 65.807,194.547 65.807,196.151 64.100 L 196.523 63.704 196.014 63.124 C 195.355 62.375,194.676 62.210,191.750 62.091 C 188.898 61.976,188.123 61.806,187.310 61.117 C 186.963 60.824,186.007 60.021,185.187 59.333 C 183.135 57.615,183.073 57.445,183.119 53.667 C 183.169 49.502,183.312 48.853,184.297 48.329 C 184.904 48.005,185.179 47.709,185.579 46.945 C 186.344 45.484,187.001 45.333,192.590 45.333 C 195.977 45.333,196.228 45.312,196.685 44.987 C 198.109 43.973,197.628 42.571,195.750 42.263 C 194.913 42.126,188.096 42.052,186.742 42.166 M220.417 42.307 C 219.905 42.619,219.771 42.827,219.185 44.213 C 219.000 44.651,218.617 45.204,218.335 45.441 C 217.607 46.053,217.357 46.627,217.000 48.500 C 216.647 50.354,216.373 50.993,215.761 51.394 C 215.151 51.794,214.756 52.680,214.315 54.640 C 213.983 56.112,213.858 56.412,213.459 56.696 C 212.676 57.253,211.430 60.648,211.574 61.833 C 211.601 62.063,211.634 62.442,211.645 62.676 C 211.678 63.338,212.009 63.647,212.943 63.888 L 213.802 64.110 214.415 63.459 C 215.111 62.720,215.413 62.080,215.576 61.000 C 215.978 58.347,217.091 57.704,221.320 57.684 C 224.653 57.668,226.082 58.547,226.851 61.083 C 227.325 62.650,227.699 63.343,228.315 63.796 L 228.831 64.175 229.478 63.845 C 231.234 62.949,230.981 58.353,229.096 56.915 C 228.608 56.543,228.481 56.296,228.251 55.280 C 227.697 52.825,227.494 52.330,226.668 51.418 C 225.927 50.599,225.500 49.572,225.500 48.605 C 225.500 47.922,224.922 46.639,224.272 45.877 C 223.837 45.368,223.347 44.524,223.080 43.825 C 222.435 42.136,221.535 41.623,220.417 42.307 M73.165 42.463 C 71.881 43.110,71.917 42.809,71.917 52.917 C 71.917 63.328,71.942 63.648,72.830 64.536 L 73.461 65.167 78.570 65.167 C 84.161 65.167,84.567 65.102,85.214 64.116 C 85.462 63.736,85.453 63.675,85.068 63.108 C 84.348 62.049,84.121 62.000,79.953 62.000 C 75.817 62.000,76.194 62.097,75.733 60.917 C 75.662 60.733,75.561 56.833,75.510 52.250 C 75.406 42.977,75.431 43.166,74.236 42.469 C 73.760 42.191,73.705 42.190,73.165 42.463 M102.865 42.637 C 102.008 43.438,101.985 43.738,102.036 53.455 L 102.083 62.417 102.472 63.275 C 103.401 65.328,104.490 65.126,105.209 62.766 C 105.526 61.723,105.506 44.129,105.186 43.371 C 104.694 42.204,103.674 41.881,102.865 42.637 M160.248 42.718 C 159.477 43.490,159.473 43.551,159.539 53.667 C 159.603 63.469,159.598 63.420,160.627 64.449 C 161.500 65.322,162.360 64.502,162.813 62.367 C 163.032 61.332,163.060 45.239,162.845 43.927 C 162.580 42.311,161.267 41.700,160.248 42.718 M122.918 42.882 C 122.188 43.612,122.127 44.602,122.197 54.500 C 122.256 62.880,122.237 62.735,123.388 63.809 L 123.808 64.201 124.532 63.475 C 125.620 62.386,125.667 62.093,125.666 56.314 C 125.664 50.065,125.980 47.400,126.494 49.312 C 126.740 50.223,127.221 50.763,128.081 51.091 C 128.756 51.349,128.857 51.463,129.166 52.313 C 129.353 52.828,129.627 53.578,129.775 53.979 C 129.980 54.537,130.230 54.823,130.844 55.205 C 131.454 55.585,131.747 55.919,132.074 56.610 C 132.352 57.197,132.686 57.618,133.018 57.801 C 134.024 58.353,134.261 58.631,134.490 59.523 C 134.660 60.188,134.932 60.643,135.571 61.331 C 136.040 61.836,136.784 62.784,137.225 63.437 C 138.741 65.687,139.806 65.368,141.389 62.193 L 141.833 61.303 141.832 53.943 C 141.830 43.537,141.841 43.597,139.931 42.904 C 137.643 42.073,137.430 42.560,137.371 48.750 C 137.326 53.481,137.246 54.313,136.706 55.708 C 136.375 56.562,136.279 56.513,135.552 55.125 C 135.204 54.460,134.584 53.580,134.174 53.168 C 133.764 52.757,133.163 51.937,132.839 51.347 C 132.446 50.632,132.004 50.102,131.513 49.757 C 130.950 49.362,130.712 49.049,130.507 48.437 C 130.203 47.529,129.808 47.046,129.030 46.631 C 128.735 46.474,128.449 46.212,128.393 46.048 C 127.662 43.896,126.859 42.964,125.425 42.604 C 123.875 42.214,123.549 42.251,122.918 42.882 M221.491 46.397 C 221.230 46.681,220.789 46.353,220.897 45.956 C 220.953 45.751,221.051 45.171,221.115 44.667 L 221.231 43.750 221.429 45.000 C 221.538 45.688,221.566 46.316,221.491 46.397 M161.292 57.542 C 161.265 59.673,161.244 57.929,161.244 53.667 C 161.244 49.404,161.265 47.660,161.292 49.792 C 161.318 51.923,161.318 55.410,161.292 57.542 M221.833 48.563 C 221.833 49.115,222.722 53.143,222.906 53.423 C 223.156 53.806,223.146 53.817,222.217 54.165 C 220.166 54.932,217.550 54.209,218.769 53.211 C 219.034 52.995,219.410 52.685,219.605 52.523 C 219.971 52.219,220.500 50.338,220.500 49.342 C 220.500 48.650,221.054 48.095,221.504 48.335 C 221.685 48.432,221.833 48.535,221.833 48.563 M181.472 53.500 C 181.477 56.451,181.335 57.633,181.111 56.513 C 180.967 55.791,180.971 51.278,181.116 50.417 C 181.326 49.180,181.466 50.401,181.472 53.500 M38.790 54.203 C 38.756 54.687,38.728 54.333,38.728 53.417 C 38.727 52.500,38.755 52.104,38.789 52.536 C 38.823 52.968,38.824 53.718,38.790 54.203 M216.542 56.392 C 216.168 56.613,215.999 56.305,216.111 55.611 L 216.214 54.980 216.498 55.615 C 216.742 56.162,216.749 56.270,216.542 56.392 M226.391 56.423 C 226.323 56.602,226.237 56.609,225.996 56.459 C 225.704 56.277,225.703 56.241,225.966 55.794 L 226.245 55.322 226.362 55.758 C 226.426 55.998,226.439 56.297,226.391 56.423 M139.247 60.827 C 139.472 61.262,139.463 61.336,139.132 61.756 L 138.773 62.213 138.386 61.764 C 137.914 61.215,137.912 61.157,138.347 60.604 C 138.737 60.108,138.895 60.147,139.247 60.827 M110.284 86.904 C 109.844 87.022,109.278 87.317,109.025 87.560 C 108.772 87.802,108.471 88.000,108.356 88.000 C 108.240 88.000,107.757 88.131,107.281 88.292 L 106.417 88.583 107.433 88.632 C 108.180 88.668,108.784 88.569,109.712 88.257 L 110.975 87.833 186.250 87.833 L 261.525 87.833 262.766 88.250 C 263.598 88.529,264.349 88.662,265.045 88.653 L 266.083 88.639 265.500 88.385 C 265.179 88.245,264.729 88.098,264.500 88.059 C 264.271 88.020,263.896 87.839,263.667 87.656 C 263.438 87.474,262.987 87.195,262.667 87.037 C 261.889 86.654,111.698 86.523,110.284 86.904 " stroke="none" fill="#a0d2d8" fill-rule="evenodd"></path></g></svg>